<svg xmlns="http://www.w3.org/2000/svg" width="90" height="90" viewBox="0 0 90 90"><defs><style>.a{fill:#fed1d1;}.b{fill:#fd5552;}</style></defs><g transform="translate(-1187 -1638)"><circle class="a" cx="45" cy="45" r="45" transform="translate(1187 1638)"/><path class="b" d="M37.783,4.58,4.929,18.9a.753.753,0,0,0,.027,1.369l8.887,5.021a1.433,1.433,0,0,0,1.638-.161L33,10.021c.116-.1.394-.286.5-.179s-.063.385-.161.5L18.183,27.419a1.428,1.428,0,0,0-.143,1.709l5.808,9.317a.756.756,0,0,0,1.36-.018L38.794,5.573A.753.753,0,0,0,37.783,4.58Z" transform="translate(1210.815 1662.242)"/></g></svg>