<svg xmlns="http://www.w3.org/2000/svg" width="80" height="80" viewBox="0 0 80 80"><defs><style>.a{fill:#1891fc;}.b{fill:#fff;}</style></defs><g transform="translate(-1306 -988.775)"><rect class="a" width="80" height="80" rx="40" transform="translate(1306 988.775)"/><g transform="translate(1331.127 1013.775)"><path class="b" d="M19.5,39.041V57.179a3.252,3.252,0,0,0,3.289,3.241H45.716a3.283,3.283,0,0,0,3.289-3.241V39.041A3.252,3.252,0,0,0,45.716,35.8H39.09v2.418h6.627a.858.858,0,0,1,.871.822V57.179a.827.827,0,0,1-.871.822H22.789a.858.858,0,0,1-.871-.822V39.041a.827.827,0,0,1,.871-.822h5.659V35.8H22.789A3.252,3.252,0,0,0,19.5,39.041Z" transform="translate(-19.627 -30.469)"/><path class="b" d="M41.992,13.2V31.871l-3.1-2.66-1.6,1.838L42.379,35.4a1.186,1.186,0,0,0,.774.29,1.1,1.1,0,0,0,.774-.29l5.079-4.353-1.6-1.838-3,2.66V13.2Z" transform="translate(-28.69 -13.2)"/></g></g></svg>