<svg xmlns="http://www.w3.org/2000/svg" xmlns:xlink="http://www.w3.org/1999/xlink" width="68.838" height="73.017" viewBox="0 0 68.838 73.017"><defs><style>.a{fill:#56fec9;}.b{fill:#641ac3;}.c{fill:#de5e93;}.d{fill:#d94190;}.e{fill:#fedc31;}.f{fill:url(#a);}.g{fill:#fff;}</style><linearGradient id="a" x1="0.5" x2="0.5" y2="1" gradientUnits="objectBoundingBox"><stop offset="0" stop-color="#ed5887"/><stop offset="1" stop-color="#c36fa9"/></linearGradient></defs><g transform="translate(-296.221 -677)"><g transform="translate(0 4.793)"><g transform="translate(-3956.102 -729.224)"><path class="a" d="M522.531,489.739a.189.189,0,0,1-.189-.189v-7.736a.189.189,0,1,1,.377,0v7.736A.189.189,0,0,1,522.531,489.739Z" transform="translate(3775.172 982.839)"/><path class="a" d="M475.066,438.144a.187.187,0,0,1-.095-.026l-10.721-6.246a.189.189,0,0,1,.19-.326l10.721,6.247a.189.189,0,0,1-.1.352Z" transform="translate(3822.378 1023.489)"/><path class="a" d="M407.531,438.144a.189.189,0,0,1-.1-.352l10.721-6.247a.189.189,0,1,1,.19.326l-10.721,6.247A.189.189,0,0,1,407.531,438.144Z" transform="translate(3868.473 1023.489)"/><path class="a" d="M534.066,488.144a.188.188,0,0,1-.095-.026l-10.721-6.247a.189.189,0,0,1,.19-.326l10.721,6.247a.189.189,0,0,1-.1.352Z" transform="translate(3774.511 982.924)"/><path class="a" d="M466.531,488.144a.189.189,0,0,1-.1-.352l10.721-6.247a.189.189,0,0,1,.19.326l-10.721,6.247A.188.188,0,0,1,466.531,488.144Z" transform="translate(3820.606 982.924)"/><path class="a" d="M464.456,384.481a.189.189,0,0,1-.189-.188l-.017-6.866a.189.189,0,0,1,.188-.189h0a.189.189,0,0,1,.189.188l.017,6.866a.189.189,0,0,1-.188.189Z" transform="translate(3822.303 1067.529)"/><path class="a" d="M453.489,416.383h-4.916a.85.85,0,0,1-.849-.849v-2.525a.85.85,0,0,1,.849-.849h4.916a.85.85,0,0,1,.849.849v2.525A.85.85,0,0,1,453.489,416.383Z" transform="translate(3835.711 1039.197)"/><path class="a" d="M389.373,364.9h-10.46a.189.189,0,0,1,0-.377h10.46a.189.189,0,1,1,0,.377Z" transform="translate(3891.691 1077.846)"/><path class="a" d="M464.439,322.533a.189.189,0,0,1-.189-.189v-6.531a.189.189,0,1,1,.377,0v6.531A.189.189,0,0,1,464.439,322.533Z" transform="translate(3822.303 1117.516)"/><path class="a" d="M313.685,339.021a.188.188,0,0,1-.1-.026l-10.155-6.019a.189.189,0,0,1,.192-.325l10.155,6.019a.189.189,0,0,1-.1.351Z" transform="translate(3952.849 1103.724)"/><path class="a" d="M303.531,370.916a.189.189,0,0,1-.1-.351l10.155-6.019a.189.189,0,0,1,.192.325l-10.155,6.019a.187.187,0,0,1-.1.026Z" transform="translate(3952.849 1077.847)"/><path class="a" d="M361.217,354.213h-2.525a.85.85,0,0,1-.849-.849v-4.916a.85.85,0,0,1,.849-.849h2.525a.85.85,0,0,1,.849.849v4.916A.85.85,0,0,1,361.217,354.213Z" transform="translate(3908.632 1091.575)"/><path class="a" d="M453.489,301.157h-4.916a.85.85,0,0,1-.849-.849v-2.525a.85.85,0,0,1,.849-.849h4.916a.85.85,0,0,1,.849.849v2.525A.85.85,0,0,1,453.489,301.157Z" transform="translate(3835.711 1132.68)"/><path class="b" d="M286.217,323.213h-2.525a.85.85,0,0,1-.849-.849v-4.916a.85.85,0,0,1,.849-.849h2.525a.85.85,0,0,1,.849.849v4.916A.85.85,0,0,1,286.217,323.213Z" transform="translate(3969.48 1116.726)"/><path class="c" d="M286.217,386.213h-2.525a.85.85,0,0,1-.849-.849v-4.916a.85.85,0,0,1,.849-.849h2.525a.85.85,0,0,1,.849.849v4.916A.85.85,0,0,1,286.217,386.213Z" transform="translate(3969.48 1065.613)"/><path class="a" d="M504.991,364.9h-10.46a.189.189,0,0,1,0-.377h10.46a.189.189,0,0,1,0,.377Z" transform="translate(3797.889 1077.846)"/><path class="a" d="M571.531,339.021a.189.189,0,0,1-.1-.351l10.155-6.019a.189.189,0,0,1,.192.325l-10.155,6.019a.188.188,0,0,1-.1.026Z" transform="translate(3735.418 1103.724)"/><path class="a" d="M581.686,370.917a.188.188,0,0,1-.1-.026l-10.155-6.019a.189.189,0,0,1,.192-.325l10.155,6.019a.189.189,0,0,1-.1.351Z" transform="translate(3735.418 1077.847)"/><path class="a" d="M553.65,354.213h-2.525a.85.85,0,0,1-.849-.849v-4.916a.85.85,0,0,1,.849-.849h2.525a.85.85,0,0,1,.849.849v4.916A.85.85,0,0,1,553.65,354.213Z" transform="translate(3752.51 1091.575)"/><path class="c" d="M628.65,323.213h-2.525a.85.85,0,0,1-.849-.849v-4.916a.85.85,0,0,1,.849-.849h2.525a.85.85,0,0,1,.849.849v4.916A.85.85,0,0,1,628.65,323.213Z" transform="translate(3691.662 1116.726)"/><path class="c" d="M628.65,386.213h-2.525a.85.85,0,0,1-.849-.849v-4.916a.85.85,0,0,1,.849-.849h2.525a.85.85,0,0,1,.849.849v4.916A.85.85,0,0,1,628.65,386.213Z" transform="translate(3691.662 1065.613)"/><path class="b" d="M395.489,467.383h-4.916a.85.85,0,0,1-.849-.849v-2.525a.85.85,0,0,1,.849-.849h4.916a.85.85,0,0,1,.849.849v2.525A.85.85,0,0,1,395.489,467.383Z" transform="translate(3882.767 997.82)"/><path class="b" d="M511.3,467.383h-4.916a.85.85,0,0,1-.849-.849v-2.525a.85.85,0,0,1,.849-.849H511.3a.85.85,0,0,1,.849.849v2.525A.85.85,0,0,1,511.3,467.383Z" transform="translate(3788.805 997.82)"/><path class="c" d="M458.3,516.383h-4.916a.85.85,0,0,1-.849-.849v-2.525a.85.85,0,0,1,.849-.849H458.3a.85.85,0,0,1,.849.849v2.525A.85.85,0,0,1,458.3,516.383Z" transform="translate(3831.804 958.066)"/><path class="d" d="M569.3,516.383h-4.916a.85.85,0,0,1-.849-.849v-2.525a.85.85,0,0,1,.849-.849H569.3a.85.85,0,0,1,.849.849v2.525a.85.85,0,0,1-.849.849Z" transform="translate(3741.749 958.066)"/><path class="b" d="M511.3,516.383h-4.916a.85.85,0,0,1-.849-.849v-2.525a.85.85,0,0,1,.849-.849H511.3a.85.85,0,0,1,.849.849v2.525A.85.85,0,0,1,511.3,516.383Z" transform="translate(3788.805 958.066)"/><path class="e" d="M441.882,354.69H429.93a.85.85,0,0,1-.849-.849v-4.867a.85.85,0,0,1,.849-.849h11.952a.85.85,0,0,1,.849.849v4.867A.85.85,0,0,1,441.882,354.69Z" transform="translate(3850.836 1091.149)"/></g></g><g transform="translate(-33 -16)"><ellipse class="f" cx="11.5" cy="12.5" rx="11.5" ry="12.5" transform="translate(374 693)"/><path class="g" d="M11.3,16.677a1.33,1.33,0,0,0,1.326-1.326H9.978A1.325,1.325,0,0,0,11.3,16.677ZM15.281,12.7V9.385A4.039,4.039,0,0,0,12.3,5.2V4.744a.994.994,0,1,0-1.989,0V5.2a4.027,4.027,0,0,0-2.983,4.19V12.7L6,14.025v.663H16.607v-.663Z" transform="translate(374 695.25)"/></g><circle class="f" cx="2.5" cy="2.5" r="2.5" transform="translate(340 700)"/><circle class="f" cx="1.5" cy="1.5" r="1.5" transform="translate(337 705)"/></g></svg>