<svg xmlns="http://www.w3.org/2000/svg" xmlns:xlink="http://www.w3.org/1999/xlink" width="154.243" height="102.23" viewBox="0 0 154.243 102.23"><defs><style>.a{fill:#231379;}.b{fill:#651ac6;}.c{opacity:0.1;}.d{fill:url(#a);}.e{fill:#fdd931;}.f{fill:#fff;}.g{fill:#56fec9;}.h{fill:#2f2e41;}.i{fill:#fbbebe;}.j{fill:#fd4472;}.k{fill:#fd6584;}.l{fill:#a0616a;}.m{fill:#d95670;}</style><linearGradient id="a" x1="0.5" x2="0.5" y2="1" gradientUnits="objectBoundingBox"><stop offset="0" stop-color="#ed5887"/><stop offset="1" stop-color="#c36fa9"/></linearGradient></defs><g transform="translate(-720 -672.11)"><g transform="translate(720 672.11)"><g transform="translate(2.09 49.923)"><path class="a" d="M705.88,539.091l-32.229.107c-8.55-2.569-15.555-11.492-15.6-24.871a37.891,37.891,0,0,1,.455-6.02l25.959-5.832,20.026-4.5a39.818,39.818,0,0,1,4.113,4.277l-19.149,10.111-9.033,4.77,10.151-3.5,21.069-7.269a51.078,51.078,0,0,1,3.5,6.281l-6.357,6.57,7.191-4.708.092.217C720.628,525.543,714.974,539.06,705.88,539.091Z" transform="translate(-574.857 -490.039)"/><path class="a" d="M704.232,446.434c-4.874,1.4-10.866,3.168-17.026,5.007-8.908,2.658-18.167,5.464-24.909,7.515l0-.024a9.265,9.265,0,0,1,1.71-3.969c4.994-6.493,11.353-11.029,18.43-12.713h0a26.56,26.56,0,0,1,6.074-.725A28.021,28.021,0,0,1,704.232,446.434Z" transform="translate(-578.506 -441.524)"/><path class="a" d="M136.319,577.313,130.747,594l-1.368,4.1a13.8,13.8,0,0,1-2.335,2.694h-.131a153.5,153.5,0,0,1-18.093-.948l.654-5.013,1.4-10.751,1.794-13.768a25.533,25.533,0,0,1,3.322-1.829l1.582,14.28.747,6.736.217-7.213.449-14.972a29.948,29.948,0,0,1,4.328-1.052l2.349,5.357-1.111-5.537.143-.018C131.83,565.209,138.277,571.447,136.319,577.313Z" transform="translate(-102.851 -548.489)"/><path class="a" d="M73.618,610.546c-.264,3.41-.561,7.609-.856,11.933-.247,3.635-.492,7.355-.713,10.763-.11,1.7-.214,3.323-.308,4.819-.8-.105-1.545-.219-2.233-.338a25.638,25.638,0,0,1-1.734-3.76,21.979,21.979,0,0,1-1.265-10.178h0a20.287,20.287,0,0,1,.908-4.052,20.871,20.871,0,0,1,6.2-9.186Z" transform="translate(-66.365 -586.781)"/></g><path class="a" d="M103.8,768.371c0,1.881-11.639,3.406-26.022,3.415h-.131a153.508,153.508,0,0,1-18.093-.948l-.593-.079c-.8-.105-1.545-.219-2.233-.337-3.286-.572-5.233-1.282-5.233-2.052,0-.623,1.274-1.2,3.5-1.708,1.175-.266,2.615-.508,4.274-.721q.458-.061.939-.115a156.74,156.74,0,0,1,17.439-.87c1.3,0,2.583.013,3.834.037C94.112,765.234,103.8,766.654,103.8,768.371Z" transform="translate(-51.5 -669.557)"/><path class="b" d="M566.362,90.56V181.7a4.1,4.1,0,0,1-4.1,4.093h-37a4.089,4.089,0,0,1-4.1-4.093V90.56a4.1,4.1,0,0,1,4.1-4.1H530.8v.71a3.373,3.373,0,0,0,3.372,3.373h18.818a3.345,3.345,0,0,0,2-.658,3.134,3.134,0,0,0,.332-.278,3.363,3.363,0,0,0,1.041-2.437v-.71h5.9A4.094,4.094,0,0,1,566.362,90.56Z" transform="translate(-455.133 -86.464)"/><ellipse class="c" cx="10.545" cy="2.109" rx="10.545" ry="2.109" transform="translate(83.238 34.538)"/><ellipse class="c" cx="10.545" cy="2.109" rx="10.545" ry="2.109" transform="translate(67.912 45.365)"/><ellipse class="c" cx="10.545" cy="2.109" rx="10.545" ry="2.109" transform="translate(76.629 65.19)"/><ellipse class="d" cx="10.545" cy="2.109" rx="10.545" ry="2.109" transform="translate(73.677 86.703)"/><path class="e" d="M663.558,403.5H631.5v10.586l2.684-2.684h29.374Z" transform="translate(-542.708 -346.763)"/><rect class="f" width="18.035" height="1.462" transform="translate(95.944 58.652)"/><rect class="f" width="18.035" height="1.462" transform="translate(95.944 60.845)"/><path class="e" d="M727.46,118.642H667v19.966l5.062-5.062h55.4Z" transform="translate(-573.217 -101.96)"/><rect class="f" width="41.619" height="3.375" transform="translate(103.204 20.056)"/><rect class="f" width="41.619" height="3.375" transform="translate(103.204 25.118)"/><path class="f" d="M617.466,649.876a10.06,10.06,0,0,0,4.805,4.079A8.662,8.662,0,0,0,616.7,643.62,10.06,10.06,0,0,0,617.466,649.876Z" transform="translate(-537.063 -565.281)"/><path class="g" d="M592.888,674.285a10.061,10.061,0,0,1,3.849,4.992,8.662,8.662,0,0,1-10.062-6.053A10.061,10.061,0,0,1,592.888,674.285Z" transform="translate(-511.427 -590.629)"/></g><g transform="translate(733.985 682.169)"><path class="h" d="M442.83,133.3l5.833,1.026,1.944-9.746-4.7-2.052Z" transform="translate(-429.476 -120.12)"/><path class="h" d="M483.418,142.319l5.833,1.026L491.2,133.6l-4.7-2.052Z" transform="translate(-463.05 -127.581)"/><path class="i" d="M523.631,556.815v4.052h2.961l-.312-3.9Z" transform="translate(-496.314 -479.36)"/><path class="i" d="M420.162,556.815v4.052H417.2l.312-3.9Z" transform="translate(-408.276 -479.36)"/><path class="h" d="M578.482,436.1l-2.368,14.433a86.212,86.212,0,0,0-1.09,11.106l-.439,13.271,3.117-.312,2.338-15.119s6.079-22.444,8.261-17.924,3.273,18.859,3.273,18.859l.935,14.028h3.429l.312-18.392s1.87-25.717-2.806-27.9Z" transform="translate(-565.505 -396.205)"/><path class="j" d="M673.117,705.65s-3.429-2.338-3.741-.468l-1.247,4.52s-1.87,3.585,2.182,3.585,2.806-2.65,2.806-2.65Z" transform="translate(-642.527 -624.766)"/><path class="j" d="M571.014,705.65s3.429-2.338,3.741-.468L576,709.7s1.87,3.585-2.182,3.585-2.805-2.65-2.805-2.65Z" transform="translate(-562.401 -624.766)"/><circle class="i" cx="4.52" cy="4.52" r="4.52" transform="translate(17.108 2.095)"/><path class="i" d="M621.554,292.856s.468,4.364-1.87,5.3l3.9,4.676,5.143-3.585s-3.741-.779-3.117-2.961a16.41,16.41,0,0,0,.623-2.494Z" transform="translate(-602.81 -284.293)"/><path class="k" d="M596.649,320.366s3.273,2.494,3.9,2.338,1.87-1.87,1.87-1.87,4.6.078,6.468,1.325-1.792,8.962-1.792,8.962,1.013,3.507-.234,4.442.312,3.273.312,3.273-3.117,5.767-11.378,7.949c0,0-5.143,2.026-4.988.935s1.714-13.56,1.714-13.56V321.223Z" transform="translate(-578.918 -307.048)"/><path class="h" d="M600.585,244.542a4.089,4.089,0,0,0-2.48,3.894,5.51,5.51,0,0,0,.164,1.476,4.326,4.326,0,0,1-.812,3.359,33.248,33.248,0,0,0-1.887,3.246l-.007.015,2.592.324.551-4.3a21.4,21.4,0,0,1,1.7-6.033l.018-.04a4.174,4.174,0,0,0,3.4,2.106l-.81-.81s3.565,1.458,4.861,1.458c0,0,.972.648,0,1.62s-2.917,3.241-1.782,5.023.162,2.268.162,2.268l1.782-.972.81-.486v.648l4.213-.486s1.134-.162-1.3-2.917a2.888,2.888,0,0,1-.361-1.992,4.653,4.653,0,0,0,.177-2.176C611.036,246.734,608.9,240.695,600.585,244.542Z" transform="translate(-582.857 -243.3)"/><path class="e" d="M365.556,341.7h42.42v23.512h-5.388v6.466l-5.8-6.466H365.556Z" transform="translate(-365.556 -301.418)"/><rect class="f" width="28.509" height="1.274" transform="translate(35.465 48.462) rotate(180)"/><rect class="f" width="28.509" height="1.274" transform="translate(35.465 52.675) rotate(180)"/><rect class="f" width="28.509" height="1.274" transform="translate(35.465 56.887) rotate(180)"/><path class="l" d="M581.8,396.736l.468,3.429,3.429,9.508s.779,7.326,2.65,6.39-.312-7.481-.312-7.481L585.23,399.7l.156-3.117Z" transform="translate(-571.474 -370.092)"/><path class="k" d="M583.214,324.936l-1.406-.458-.62.3s-2.182.156-2.494,1.715-1.4,11.222-1.4,11.222l5.767.312Z" transform="translate(-567.743 -310.45)"/><path class="l" d="M667.25,396.736l-.468,3.429-3.429,9.508s-.779,7.326-2.65,6.39.312-7.481.312-7.481l2.806-8.884-.156-3.117Z" transform="translate(-636.115 -370.092)"/><path class="m" d="M672.447,325.558l.75-.244a1.706,1.706,0,0,1,1.276.089h0s2.182.156,2.494,1.715,1.4,11.222,1.4,11.222l-5.767.312Z" transform="translate(-646.455 -311.072)"/></g></g></svg>