<svg xmlns="http://www.w3.org/2000/svg" width="90" height="90" viewBox="0 0 90 90"><defs><style>.a{fill:#ebf9ef;}.b{fill:#30c959;}</style></defs><g transform="translate(-1187 -1638)"><circle class="a" cx="45" cy="45" r="45" transform="translate(1187 1638)"/><path class="b" d="M13.5,18a7.875,7.875,0,1,0-7.875-7.875A7.871,7.871,0,0,0,13.5,18Zm5.4,2.25h-.584a10.873,10.873,0,0,1-9.633,0H8.1A8.1,8.1,0,0,0,0,28.35v2.025A3.376,3.376,0,0,0,3.375,33.75h20.25A3.376,3.376,0,0,0,27,30.375V28.35A8.1,8.1,0,0,0,18.9,20.25ZM33.75,18A6.75,6.75,0,1,0,27,11.25,6.752,6.752,0,0,0,33.75,18Zm3.375,2.25h-.267a8.867,8.867,0,0,1-6.216,0h-.267a7.81,7.81,0,0,0-3.916,1.083A10.29,10.29,0,0,1,29.25,28.35v2.7c0,.155-.035.3-.042.45H41.625A3.376,3.376,0,0,0,45,28.125a7.871,7.871,0,0,0-7.875-7.875Z" transform="translate(1210 1665.5)"/></g></svg>