<svg xmlns="http://www.w3.org/2000/svg" width="45.077" height="41.536" viewBox="0 0 45.077 41.536"><defs><style>.a{fill:#d94190;}.b{fill:none;stroke:#220f7f;stroke-linecap:round;}</style></defs><g transform="translate(-5370.52 842.216)"><path class="a" d="M5537.287-676.5c-.3,1.605-1.388,8.245-1.76,8.581s13.125,3.554,22.341,2.321c.855,7.114,9.963,19.921,9.963,19.921l7.458-4.53s-8.54-8.7-12.1-14.778c5.05,1.2,13.869,4.093,17.274-2.934,1.224-4.479-6.217-13.989-20.13-2.995.315-6.944-5.087-19.433-13.757-15.575-7.053,5.15,5.213,15.575,5.213,15.575A116.278,116.278,0,0,1,5537.287-676.5Z" transform="translate(-165 -155)"/><path class="b" d="M5599.3-643.229s-4.111-10.432-10.779-12.484" transform="translate(-206.053 -179.2)"/><path class="b" d="M5644.973-602.359a21.333,21.333,0,0,1,14.811.781" transform="translate(-249.785 -219.786)"/></g></svg>