<svg xmlns="http://www.w3.org/2000/svg" width="80" height="80" viewBox="0 0 80 80"><defs><style>.a{fill:#f89aba;}.b{fill:#fff;}</style></defs><g transform="translate(-1306 -988.775)"><rect class="a" width="80" height="80" rx="40" transform="translate(1306 988.775)"/><path class="b" d="M34.891,963.362c-5.978,0-10.891,4.661-10.891,11.31a10.916,10.916,0,0,0,1.6,5.852l8.561,15.08a.838.838,0,0,0,1.466,0l8.561-15.08a10.916,10.916,0,0,0,1.6-5.852C45.783,968.023,40.869,963.362,34.891,963.362Zm0,5.865a5.027,5.027,0,1,1-5.027,5.027A5.027,5.027,0,0,1,34.891,969.227Z" transform="translate(1310.742 49.526)"/></g></svg>