<svg xmlns="http://www.w3.org/2000/svg" width="90" height="90" viewBox="0 0 90 90"><defs><style>.a{fill:#e7f3ff;}.b{fill:#178bfc;}</style></defs><g transform="translate(-1187 -1638)"><circle class="a" cx="45" cy="45" r="45" transform="translate(1187 1638)"/><path class="b" d="M7.037,9.519H38.7V6H7.037A3.529,3.529,0,0,0,3.519,9.519V28.87H0v5.278H24.63V28.87H7.037Zm33.426,3.519H29.907A1.764,1.764,0,0,0,28.148,14.8V32.389a1.764,1.764,0,0,0,1.759,1.759H40.463a1.764,1.764,0,0,0,1.759-1.759V14.8A1.764,1.764,0,0,0,40.463,13.037ZM38.7,28.87H31.667V16.556H38.7Z" transform="translate(1211.027 1663.851)"/></g></svg>