<svg xmlns="http://www.w3.org/2000/svg" width="334.889" height="670.778" viewBox="0 0 334.889 670.778"><defs><style>.a,.c{opacity:0.6;}.b,.c{fill:#37249d;}</style></defs><g transform="translate(-553 -118)"><g class="a" transform="translate(10 -10)"><circle class="b" cx="2" cy="2" r="2" transform="translate(582 183)"/><circle class="b" cx="2" cy="2" r="2" transform="translate(596 183)"/><circle class="b" cx="2" cy="2" r="2" transform="translate(610 183)"/><circle class="b" cx="2" cy="2" r="2" transform="translate(624 183)"/><circle class="b" cx="2" cy="2" r="2" transform="translate(638 183)"/><circle class="b" cx="2" cy="2" r="2" transform="translate(652 183)"/><circle class="b" cx="2" cy="2" r="2" transform="translate(666 183)"/><circle class="b" cx="2" cy="2" r="2" transform="translate(680 183)"/><circle class="b" cx="2" cy="2" r="2" transform="translate(694 183)"/><circle class="b" cx="2" cy="2" r="2" transform="translate(708 183)"/><circle class="b" cx="2" cy="2" r="2" transform="translate(722 183)"/><circle class="b" cx="2" cy="2" r="2" transform="translate(736 183)"/><circle class="b" cx="2" cy="2" r="2" transform="translate(750 183)"/><circle class="b" cx="2" cy="2" r="2" transform="translate(764 183)"/><circle class="b" cx="2" cy="2" r="2" transform="translate(778 183)"/><circle class="b" cx="2" cy="2" r="2" transform="translate(792 183)"/><circle class="b" cx="2" cy="2" r="2" transform="translate(806 183)"/><circle class="b" cx="2" cy="2" r="2" transform="translate(820 183)"/><circle class="b" cx="2" cy="2" r="2" transform="translate(834 183)"/><circle class="b" cx="2" cy="2" r="2" transform="translate(582 197)"/><circle class="b" cx="2" cy="2" r="2" transform="translate(596 197)"/><circle class="b" cx="2" cy="2" r="2" transform="translate(610 197)"/><circle class="b" cx="2" cy="2" r="2" transform="translate(624 197)"/><circle class="b" cx="2" cy="2" r="2" transform="translate(638 197)"/><circle class="b" cx="2" cy="2" r="2" transform="translate(652 197)"/><circle class="b" cx="2" cy="2" r="2" transform="translate(666 197)"/><circle class="b" cx="2" cy="2" r="2" transform="translate(680 197)"/><circle class="b" cx="2" cy="2" r="2" transform="translate(694 197)"/><circle class="b" cx="2" cy="2" r="2" transform="translate(708 197)"/><circle class="b" cx="2" cy="2" r="2" transform="translate(722 197)"/><circle class="b" cx="2" cy="2" r="2" transform="translate(736 197)"/><circle class="b" cx="2" cy="2" r="2" transform="translate(750 197)"/><circle class="b" cx="2" cy="2" r="2" transform="translate(764 197)"/><circle class="b" cx="2" cy="2" r="2" transform="translate(778 197)"/><circle class="b" cx="2" cy="2" r="2" transform="translate(792 197)"/><circle class="b" cx="2" cy="2" r="2" transform="translate(806 197)"/><circle class="b" cx="2" cy="2" r="2" transform="translate(820 197)"/><circle class="b" cx="2" cy="2" r="2" transform="translate(834 197)"/><circle class="b" cx="2" cy="2" r="2" transform="translate(582 211)"/><circle class="b" cx="2" cy="2" r="2" transform="translate(596 211)"/><circle class="b" cx="2" cy="2" r="2" transform="translate(610 211)"/><circle class="b" cx="2" cy="2" r="2" transform="translate(624 211)"/><circle class="b" cx="2" cy="2" r="2" transform="translate(638 211)"/><circle class="b" cx="2" cy="2" r="2" transform="translate(652 211)"/><circle class="b" cx="2" cy="2" r="2" transform="translate(666 211)"/><circle class="b" cx="2" cy="2" r="2" transform="translate(680 211)"/><circle class="b" cx="2" cy="2" r="2" transform="translate(694 211)"/><circle class="b" cx="2" cy="2" r="2" transform="translate(708 211)"/><circle class="b" cx="2" cy="2" r="2" transform="translate(722 211)"/><circle class="b" cx="2" cy="2" r="2" transform="translate(736 211)"/><circle class="b" cx="2" cy="2" r="2" transform="translate(750 211)"/><circle class="b" cx="2" cy="2" r="2" transform="translate(764 211)"/><circle class="b" cx="2" cy="2" r="2" transform="translate(778 211)"/><circle class="b" cx="2" cy="2" r="2" transform="translate(792 211)"/><circle class="b" cx="2" cy="2" r="2" transform="translate(806 211)"/><circle class="b" cx="2" cy="2" r="2" transform="translate(820 211)"/><circle class="b" cx="2" cy="2" r="2" transform="translate(834 211)"/><circle class="b" cx="2" cy="2" r="2" transform="translate(582 225)"/><circle class="b" cx="2" cy="2" r="2" transform="translate(596 225)"/><circle class="b" cx="2" cy="2" r="2" transform="translate(610 225)"/><circle class="b" cx="2" cy="2" r="2" transform="translate(624 225)"/><circle class="b" cx="2" cy="2" r="2" transform="translate(638 225)"/><circle class="b" cx="2" cy="2" r="2" transform="translate(652 225)"/><circle class="b" cx="2" cy="2" r="2" transform="translate(666 225)"/><circle class="b" cx="2" cy="2" r="2" transform="translate(680 225)"/><circle class="b" cx="2" cy="2" r="2" transform="translate(694 225)"/><circle class="b" cx="2" cy="2" r="2" transform="translate(708 225)"/><circle class="b" cx="2" cy="2" r="2" transform="translate(722 225)"/><circle class="b" cx="2" cy="2" r="2" transform="translate(736 225)"/><circle class="b" cx="2" cy="2" r="2" transform="translate(750 225)"/><circle class="b" cx="2" cy="2" r="2" transform="translate(764 225)"/><circle class="b" cx="2" cy="2" r="2" transform="translate(778 225)"/><circle class="b" cx="2" cy="2" r="2" transform="translate(792 225)"/><circle class="b" cx="2" cy="2" r="2" transform="translate(806 225)"/><circle class="b" cx="2" cy="2" r="2" transform="translate(820 225)"/><circle class="b" cx="2" cy="2" r="2" transform="translate(834 225)"/><circle class="b" cx="2" cy="2" r="2" transform="translate(582 239)"/><circle class="b" cx="2" cy="2" r="2" transform="translate(596 239)"/><circle class="b" cx="2" cy="2" r="2" transform="translate(610 239)"/><circle class="b" cx="2" cy="2" r="2" transform="translate(624 239)"/><circle class="b" cx="2" cy="2" r="2" transform="translate(638 239)"/><circle class="b" cx="2" cy="2" r="2" transform="translate(652 239)"/><circle class="b" cx="2" cy="2" r="2" transform="translate(666 239)"/><circle class="b" cx="2" cy="2" r="2" transform="translate(680 239)"/><circle class="b" cx="2" cy="2" r="2" transform="translate(694 239)"/><circle class="b" cx="2" cy="2" r="2" transform="translate(708 239)"/><circle class="b" cx="2" cy="2" r="2" transform="translate(722 239)"/><circle class="b" cx="2" cy="2" r="2" transform="translate(736 239)"/><circle class="b" cx="2" cy="2" r="2" transform="translate(750 239)"/><circle class="b" cx="2" cy="2" r="2" transform="translate(764 239)"/><circle class="b" cx="2" cy="2" r="2" transform="translate(778 239)"/><circle class="b" cx="2" cy="2" r="2" transform="translate(792 239)"/><circle class="b" cx="2" cy="2" r="2" transform="translate(806 239)"/><circle class="b" cx="2" cy="2" r="2" transform="translate(820 239)"/><circle class="b" cx="2" cy="2" r="2" transform="translate(834 239)"/><circle class="b" cx="2" cy="2" r="2" transform="translate(582 253)"/><circle class="b" cx="2" cy="2" r="2" transform="translate(596 253)"/><circle class="b" cx="2" cy="2" r="2" transform="translate(610 253)"/><circle class="b" cx="2" cy="2" r="2" transform="translate(624 253)"/><circle class="b" cx="2" cy="2" r="2" transform="translate(638 253)"/><circle class="b" cx="2" cy="2" r="2" transform="translate(652 253)"/><circle class="b" cx="2" cy="2" r="2" transform="translate(666 253)"/><circle class="b" cx="2" cy="2" r="2" transform="translate(680 253)"/><circle class="b" cx="2" cy="2" r="2" transform="translate(694 253)"/><circle class="b" cx="2" cy="2" r="2" transform="translate(708 253)"/><circle class="b" cx="2" cy="2" r="2" transform="translate(722 253)"/><circle class="b" cx="2" cy="2" r="2" transform="translate(736 253)"/><circle class="b" cx="2" cy="2" r="2" transform="translate(750 253)"/><circle class="b" cx="2" cy="2" r="2" transform="translate(764 253)"/><circle class="b" cx="2" cy="2" r="2" transform="translate(778 253)"/><circle class="b" cx="2" cy="2" r="2" transform="translate(792 253)"/><circle class="b" cx="2" cy="2" r="2" transform="translate(806 253)"/><circle class="b" cx="2" cy="2" r="2" transform="translate(820 253)"/><circle class="b" cx="2" cy="2" r="2" transform="translate(834 253)"/><circle class="b" cx="2" cy="2" r="2" transform="translate(582 267)"/><circle class="b" cx="2" cy="2" r="2" transform="translate(596 267)"/><circle class="b" cx="2" cy="2" r="2" transform="translate(610 267)"/><circle class="b" cx="2" cy="2" r="2" transform="translate(624 267)"/><circle class="b" cx="2" cy="2" r="2" transform="translate(638 267)"/><circle class="b" cx="2" cy="2" r="2" transform="translate(652 267)"/><circle class="b" cx="2" cy="2" r="2" transform="translate(666 267)"/><circle class="b" cx="2" cy="2" r="2" transform="translate(680 267)"/><circle class="b" cx="2" cy="2" r="2" transform="translate(694 267)"/><circle class="b" cx="2" cy="2" r="2" transform="translate(708 267)"/><circle class="b" cx="2" cy="2" r="2" transform="translate(722 267)"/><circle class="b" cx="2" cy="2" r="2" transform="translate(736 267)"/><circle class="b" cx="2" cy="2" r="2" transform="translate(750 267)"/><circle class="b" cx="2" cy="2" r="2" transform="translate(764 267)"/><circle class="b" cx="2" cy="2" r="2" transform="translate(778 267)"/><circle class="b" cx="2" cy="2" r="2" transform="translate(792 267)"/><circle class="b" cx="2" cy="2" r="2" transform="translate(806 267)"/><circle class="b" cx="2" cy="2" r="2" transform="translate(820 267)"/><circle class="b" cx="2" cy="2" r="2" transform="translate(834 267)"/><circle class="b" cx="2" cy="2" r="2" transform="translate(582 281)"/><circle class="b" cx="2" cy="2" r="2" transform="translate(596 281)"/><circle class="b" cx="2" cy="2" r="2" transform="translate(610 281)"/><circle class="b" cx="2" cy="2" r="2" transform="translate(624 281)"/><circle class="b" cx="2" cy="2" r="2" transform="translate(638 281)"/><circle class="b" cx="2" cy="2" r="2" transform="translate(652 281)"/><circle class="b" cx="2" cy="2" r="2" transform="translate(666 281)"/><circle class="b" cx="2" cy="2" r="2" transform="translate(680 281)"/><circle class="b" cx="2" cy="2" r="2" transform="translate(694 281)"/><circle class="b" cx="2" cy="2" r="2" transform="translate(708 281)"/><circle class="b" cx="2" cy="2" r="2" transform="translate(722 281)"/><circle class="b" cx="2" cy="2" r="2" transform="translate(736 281)"/><circle class="b" cx="2" cy="2" r="2" transform="translate(750 281)"/><circle class="b" cx="2" cy="2" r="2" transform="translate(764 281)"/><circle class="b" cx="2" cy="2" r="2" transform="translate(778 281)"/><circle class="b" cx="2" cy="2" r="2" transform="translate(792 281)"/><circle class="b" cx="2" cy="2" r="2" transform="translate(806 281)"/><circle class="b" cx="2" cy="2" r="2" transform="translate(820 281)"/><circle class="b" cx="2" cy="2" r="2" transform="translate(834 281)"/><circle class="b" cx="2" cy="2" r="2" transform="translate(582 295)"/><circle class="b" cx="2" cy="2" r="2" transform="translate(596 295)"/><circle class="b" cx="2" cy="2" r="2" transform="translate(610 295)"/><circle class="b" cx="2" cy="2" r="2" transform="translate(624 295)"/><circle class="b" cx="2" cy="2" r="2" transform="translate(638 295)"/><circle class="b" cx="2" cy="2" r="2" transform="translate(652 295)"/><circle class="b" cx="2" cy="2" r="2" transform="translate(666 295)"/><circle class="b" cx="2" cy="2" r="2" transform="translate(680 295)"/><circle class="b" cx="2" cy="2" r="2" transform="translate(694 295)"/><circle class="b" cx="2" cy="2" r="2" transform="translate(708 295)"/><circle class="b" cx="2" cy="2" r="2" transform="translate(722 295)"/><circle class="b" cx="2" cy="2" r="2" transform="translate(736 295)"/><circle class="b" cx="2" cy="2" r="2" transform="translate(750 295)"/><circle class="b" cx="2" cy="2" r="2" transform="translate(764 295)"/><circle class="b" cx="2" cy="2" r="2" transform="translate(778 295)"/><circle class="b" cx="2" cy="2" r="2" transform="translate(792 295)"/><circle class="b" cx="2" cy="2" r="2" transform="translate(806 295)"/><circle class="b" cx="2" cy="2" r="2" transform="translate(820 295)"/><circle class="b" cx="2" cy="2" r="2" transform="translate(834 295)"/><circle class="b" cx="2" cy="2" r="2" transform="translate(582 309)"/><circle class="b" cx="2" cy="2" r="2" transform="translate(596 309)"/><circle class="b" cx="2" cy="2" r="2" transform="translate(610 309)"/><circle class="b" cx="2" cy="2" r="2" transform="translate(624 309)"/><circle class="b" cx="2" cy="2" r="2" transform="translate(638 309)"/><circle class="b" cx="2" cy="2" r="2" transform="translate(652 309)"/><circle class="b" cx="2" cy="2" r="2" transform="translate(666 309)"/><circle class="b" cx="2" cy="2" r="2" transform="translate(680 309)"/><circle class="b" cx="2" cy="2" r="2" transform="translate(694 309)"/><circle class="b" cx="2" cy="2" r="2" transform="translate(708 309)"/><circle class="b" cx="2" cy="2" r="2" transform="translate(722 309)"/><circle class="b" cx="2" cy="2" r="2" transform="translate(736 309)"/><circle class="b" cx="2" cy="2" r="2" transform="translate(750 309)"/><circle class="b" cx="2" cy="2" r="2" transform="translate(764 309)"/><circle class="b" cx="2" cy="2" r="2" transform="translate(778 309)"/><circle class="b" cx="2" cy="2" r="2" transform="translate(792 309)"/><circle class="b" cx="2" cy="2" r="2" transform="translate(806 309)"/><circle class="b" cx="2" cy="2" r="2" transform="translate(820 309)"/><circle class="b" cx="2" cy="2" r="2" transform="translate(834 309)"/><circle class="b" cx="2" cy="2" r="2" transform="translate(582 323)"/><circle class="b" cx="2" cy="2" r="2" transform="translate(596 323)"/><circle class="b" cx="2" cy="2" r="2" transform="translate(610 323)"/><circle class="b" cx="2" cy="2" r="2" transform="translate(624 323)"/><circle class="b" cx="2" cy="2" r="2" transform="translate(638 323)"/><circle class="b" cx="2" cy="2" r="2" transform="translate(652 323)"/><circle class="b" cx="2" cy="2" r="2" transform="translate(666 323)"/><circle class="b" cx="2" cy="2" r="2" transform="translate(680 323)"/><circle class="b" cx="2" cy="2" r="2" transform="translate(694 323)"/><circle class="b" cx="2" cy="2" r="2" transform="translate(708 323)"/><circle class="b" cx="2" cy="2" r="2" transform="translate(722 323)"/><circle class="b" cx="2" cy="2" r="2" transform="translate(736 323)"/><circle class="b" cx="2" cy="2" r="2" transform="translate(750 323)"/><circle class="b" cx="2" cy="2" r="2" transform="translate(764 323)"/><circle class="b" cx="2" cy="2" r="2" transform="translate(778 323)"/><circle class="b" cx="2" cy="2" r="2" transform="translate(792 323)"/><circle class="b" cx="2" cy="2" r="2" transform="translate(806 323)"/><circle class="b" cx="2" cy="2" r="2" transform="translate(820 323)"/><circle class="b" cx="2" cy="2" r="2" transform="translate(834 323)"/><circle class="b" cx="2" cy="2" r="2" transform="translate(582 337)"/><circle class="b" cx="2" cy="2" r="2" transform="translate(596 337)"/><circle class="b" cx="2" cy="2" r="2" transform="translate(610 337)"/><circle class="b" cx="2" cy="2" r="2" transform="translate(624 337)"/><circle class="b" cx="2" cy="2" r="2" transform="translate(638 337)"/><circle class="b" cx="2" cy="2" r="2" transform="translate(652 337)"/><circle class="b" cx="2" cy="2" r="2" transform="translate(666 337)"/><circle class="b" cx="2" cy="2" r="2" transform="translate(680 337)"/><circle class="b" cx="2" cy="2" r="2" transform="translate(694 337)"/><circle class="b" cx="2" cy="2" r="2" transform="translate(708 337)"/><circle class="b" cx="2" cy="2" r="2" transform="translate(722 337)"/><circle class="b" cx="2" cy="2" r="2" transform="translate(736 337)"/><circle class="b" cx="2" cy="2" r="2" transform="translate(750 337)"/><circle class="b" cx="2" cy="2" r="2" transform="translate(764 337)"/><circle class="b" cx="2" cy="2" r="2" transform="translate(778 337)"/><circle class="b" cx="2" cy="2" r="2" transform="translate(792 337)"/><circle class="b" cx="2" cy="2" r="2" transform="translate(806 337)"/><circle class="b" cx="2" cy="2" r="2" transform="translate(820 337)"/><circle class="b" cx="2" cy="2" r="2" transform="translate(834 337)"/><circle class="b" cx="2" cy="2" r="2" transform="translate(582 351)"/><circle class="b" cx="2" cy="2" r="2" transform="translate(596 351)"/><circle class="b" cx="2" cy="2" r="2" transform="translate(610 351)"/><circle class="b" cx="2" cy="2" r="2" transform="translate(624 351)"/><circle class="b" cx="2" cy="2" r="2" transform="translate(638 351)"/><circle class="b" cx="2" cy="2" r="2" transform="translate(652 351)"/><circle class="b" cx="2" cy="2" r="2" transform="translate(666 351)"/><circle class="b" cx="2" cy="2" r="2" transform="translate(680 351)"/><circle class="b" cx="2" cy="2" r="2" transform="translate(694 351)"/><circle class="b" cx="2" cy="2" r="2" transform="translate(708 351)"/><circle class="b" cx="2" cy="2" r="2" transform="translate(722 351)"/><circle class="b" cx="2" cy="2" r="2" transform="translate(736 351)"/><circle class="b" cx="2" cy="2" r="2" transform="translate(750 351)"/><circle class="b" cx="2" cy="2" r="2" transform="translate(764 351)"/><circle class="b" cx="2" cy="2" r="2" transform="translate(778 351)"/><circle class="b" cx="2" cy="2" r="2" transform="translate(792 351)"/><circle class="b" cx="2" cy="2" r="2" transform="translate(806 351)"/><circle class="b" cx="2" cy="2" r="2" transform="translate(820 351)"/><circle class="b" cx="2" cy="2" r="2" transform="translate(834 351)"/><circle class="b" cx="2" cy="2" r="2" transform="translate(582 365)"/><circle class="b" cx="2" cy="2" r="2" transform="translate(596 365)"/><circle class="b" cx="2" cy="2" r="2" transform="translate(610 365)"/><circle class="b" cx="2" cy="2" r="2" transform="translate(624 365)"/><circle class="b" cx="2" cy="2" r="2" transform="translate(638 365)"/><circle class="b" cx="2" cy="2" r="2" transform="translate(652 365)"/><circle class="b" cx="2" cy="2" r="2" transform="translate(666 365)"/><circle class="b" cx="2" cy="2" r="2" transform="translate(680 365)"/><circle class="b" cx="2" cy="2" r="2" transform="translate(694 365)"/><circle class="b" cx="2" cy="2" r="2" transform="translate(708 365)"/><circle class="b" cx="2" cy="2" r="2" transform="translate(722 365)"/><circle class="b" cx="2" cy="2" r="2" transform="translate(736 365)"/><circle class="b" cx="2" cy="2" r="2" transform="translate(750 365)"/><circle class="b" cx="2" cy="2" r="2" transform="translate(764 365)"/><circle class="b" cx="2" cy="2" r="2" transform="translate(778 365)"/><circle class="b" cx="2" cy="2" r="2" transform="translate(792 365)"/><circle class="b" cx="2" cy="2" r="2" transform="translate(806 365)"/><circle class="b" cx="2" cy="2" r="2" transform="translate(820 365)"/><circle class="b" cx="2" cy="2" r="2" transform="translate(834 365)"/><circle class="b" cx="2" cy="2" r="2" transform="translate(582 379)"/><circle class="b" cx="2" cy="2" r="2" transform="translate(596 379)"/><circle class="b" cx="2" cy="2" r="2" transform="translate(610 379)"/><circle class="b" cx="2" cy="2" r="2" transform="translate(624 379)"/><circle class="b" cx="2" cy="2" r="2" transform="translate(638 379)"/><circle class="b" cx="2" cy="2" r="2" transform="translate(652 379)"/><circle class="b" cx="2" cy="2" r="2" transform="translate(666 379)"/><circle class="b" cx="2" cy="2" r="2" transform="translate(680 379)"/><circle class="b" cx="2" cy="2" r="2" transform="translate(694 379)"/><circle class="b" cx="2" cy="2" r="2" transform="translate(708 379)"/><circle class="b" cx="2" cy="2" r="2" transform="translate(722 379)"/><circle class="b" cx="2" cy="2" r="2" transform="translate(736 379)"/><circle class="b" cx="2" cy="2" r="2" transform="translate(750 379)"/><circle class="b" cx="2" cy="2" r="2" transform="translate(764 379)"/><circle class="b" cx="2" cy="2" r="2" transform="translate(778 379)"/><circle class="b" cx="2" cy="2" r="2" transform="translate(792 379)"/><circle class="b" cx="2" cy="2" r="2" transform="translate(806 379)"/><circle class="b" cx="2" cy="2" r="2" transform="translate(820 379)"/><circle class="b" cx="2" cy="2" r="2" transform="translate(834 379)"/><circle class="b" cx="2" cy="2" r="2" transform="translate(582 393)"/><circle class="b" cx="2" cy="2" r="2" transform="translate(596 393)"/><circle class="b" cx="2" cy="2" r="2" transform="translate(610 393)"/><circle class="b" cx="2" cy="2" r="2" transform="translate(624 393)"/><circle class="b" cx="2" cy="2" r="2" transform="translate(638 393)"/><circle class="b" cx="2" cy="2" r="2" transform="translate(652 393)"/><circle class="b" cx="2" cy="2" r="2" transform="translate(666 393)"/><circle class="b" cx="2" cy="2" r="2" transform="translate(680 393)"/><circle class="b" cx="2" cy="2" r="2" transform="translate(694 393)"/><circle class="b" cx="2" cy="2" r="2" transform="translate(708 393)"/><circle class="b" cx="2" cy="2" r="2" transform="translate(722 393)"/><circle class="b" cx="2" cy="2" r="2" transform="translate(736 393)"/><circle class="b" cx="2" cy="2" r="2" transform="translate(750 393)"/><circle class="b" cx="2" cy="2" r="2" transform="translate(764 393)"/><circle class="b" cx="2" cy="2" r="2" transform="translate(778 393)"/><circle class="b" cx="2" cy="2" r="2" transform="translate(792 393)"/><circle class="b" cx="2" cy="2" r="2" transform="translate(806 393)"/><circle class="b" cx="2" cy="2" r="2" transform="translate(820 393)"/><circle class="b" cx="2" cy="2" r="2" transform="translate(834 393)"/><circle class="b" cx="2" cy="2" r="2" transform="translate(582 407)"/><circle class="b" cx="2" cy="2" r="2" transform="translate(596 407)"/><circle class="b" cx="2" cy="2" r="2" transform="translate(610 407)"/><circle class="b" cx="2" cy="2" r="2" transform="translate(624 407)"/><circle class="b" cx="2" cy="2" r="2" transform="translate(638 407)"/><circle class="b" cx="2" cy="2" r="2" transform="translate(652 407)"/><circle class="b" cx="2" cy="2" r="2" transform="translate(666 407)"/><circle class="b" cx="2" cy="2" r="2" transform="translate(680 407)"/><circle class="b" cx="2" cy="2" r="2" transform="translate(694 407)"/><circle class="b" cx="2" cy="2" r="2" transform="translate(708 407)"/><circle class="b" cx="2" cy="2" r="2" transform="translate(722 407)"/><circle class="b" cx="2" cy="2" r="2" transform="translate(736 407)"/><circle class="b" cx="2" cy="2" r="2" transform="translate(750 407)"/><circle class="b" cx="2" cy="2" r="2" transform="translate(764 407)"/><circle class="b" cx="2" cy="2" r="2" transform="translate(778 407)"/><circle class="b" cx="2" cy="2" r="2" transform="translate(792 407)"/><circle class="b" cx="2" cy="2" r="2" transform="translate(806 407)"/><circle class="b" cx="2" cy="2" r="2" transform="translate(820 407)"/><circle class="b" cx="2" cy="2" r="2" transform="translate(834 407)"/><circle class="b" cx="2" cy="2" r="2" transform="translate(582 421)"/><circle class="b" cx="2" cy="2" r="2" transform="translate(596 421)"/><circle class="b" cx="2" cy="2" r="2" transform="translate(610 421)"/><circle class="b" cx="2" cy="2" r="2" transform="translate(624 421)"/><circle class="b" cx="2" cy="2" r="2" transform="translate(638 421)"/><circle class="b" cx="2" cy="2" r="2" transform="translate(652 421)"/><circle class="b" cx="2" cy="2" r="2" transform="translate(666 421)"/><circle class="b" cx="2" cy="2" r="2" transform="translate(680 421)"/><circle class="b" cx="2" cy="2" r="2" transform="translate(694 421)"/><circle class="b" cx="2" cy="2" r="2" transform="translate(708 421)"/><circle class="b" cx="2" cy="2" r="2" transform="translate(722 421)"/><circle class="b" cx="2" cy="2" r="2" transform="translate(736 421)"/><circle class="b" cx="2" cy="2" r="2" transform="translate(750 421)"/><circle class="b" cx="2" cy="2" r="2" transform="translate(764 421)"/><circle class="b" cx="2" cy="2" r="2" transform="translate(778 421)"/><circle class="b" cx="2" cy="2" r="2" transform="translate(792 421)"/><circle class="b" cx="2" cy="2" r="2" transform="translate(806 421)"/><circle class="b" cx="2" cy="2" r="2" transform="translate(820 421)"/><circle class="b" cx="2" cy="2" r="2" transform="translate(834 421)"/><circle class="b" cx="2" cy="2" r="2" transform="translate(582 435)"/><circle class="b" cx="2" cy="2" r="2" transform="translate(596 435)"/><circle class="b" cx="2" cy="2" r="2" transform="translate(610 435)"/><circle class="b" cx="2" cy="2" r="2" transform="translate(624 435)"/><circle class="b" cx="2" cy="2" r="2" transform="translate(638 435)"/><circle class="b" cx="2" cy="2" r="2" transform="translate(652 435)"/><circle class="b" cx="2" cy="2" r="2" transform="translate(666 435)"/><circle class="b" cx="2" cy="2" r="2" transform="translate(680 435)"/><circle class="b" cx="2" cy="2" r="2" transform="translate(694 435)"/><circle class="b" cx="2" cy="2" r="2" transform="translate(708 435)"/><circle class="b" cx="2" cy="2" r="2" transform="translate(722 435)"/><circle class="b" cx="2" cy="2" r="2" transform="translate(736 435)"/><circle class="b" cx="2" cy="2" r="2" transform="translate(750 435)"/><circle class="b" cx="2" cy="2" r="2" transform="translate(764 435)"/><circle class="b" cx="2" cy="2" r="2" transform="translate(778 435)"/><circle class="b" cx="2" cy="2" r="2" transform="translate(792 435)"/><circle class="b" cx="2" cy="2" r="2" transform="translate(806 435)"/><circle class="b" cx="2" cy="2" r="2" transform="translate(820 435)"/><circle class="b" cx="2" cy="2" r="2" transform="translate(834 435)"/><circle class="b" cx="2" cy="2" r="2" transform="translate(582 449)"/><circle class="b" cx="2" cy="2" r="2" transform="translate(596 449)"/><circle class="b" cx="2" cy="2" r="2" transform="translate(610 449)"/><circle class="b" cx="2" cy="2" r="2" transform="translate(624 449)"/><circle class="b" cx="2" cy="2" r="2" transform="translate(638 449)"/><circle class="b" cx="2" cy="2" r="2" transform="translate(652 449)"/><circle class="b" cx="2" cy="2" r="2" transform="translate(666 449)"/><circle class="b" cx="2" cy="2" r="2" transform="translate(680 449)"/><circle class="b" cx="2" cy="2" r="2" transform="translate(694 449)"/><circle class="b" cx="2" cy="2" r="2" transform="translate(708 449)"/><circle class="b" cx="2" cy="2" r="2" transform="translate(722 449)"/><circle class="b" cx="2" cy="2" r="2" transform="translate(736 449)"/><circle class="b" cx="2" cy="2" r="2" transform="translate(750 449)"/><circle class="b" cx="2" cy="2" r="2" transform="translate(764 449)"/><circle class="b" cx="2" cy="2" r="2" transform="translate(778 449)"/><circle class="b" cx="2" cy="2" r="2" transform="translate(792 449)"/><circle class="b" cx="2" cy="2" r="2" transform="translate(806 449)"/><circle class="b" cx="2" cy="2" r="2" transform="translate(820 449)"/><circle class="b" cx="2" cy="2" r="2" transform="translate(834 449)"/><circle class="b" cx="2" cy="2" r="2" transform="translate(582 463)"/><circle class="b" cx="2" cy="2" r="2" transform="translate(596 463)"/><circle class="b" cx="2" cy="2" r="2" transform="translate(610 463)"/><circle class="b" cx="2" cy="2" r="2" transform="translate(624 463)"/><circle class="b" cx="2" cy="2" r="2" transform="translate(638 463)"/><circle class="b" cx="2" cy="2" r="2" transform="translate(652 463)"/><circle class="b" cx="2" cy="2" r="2" transform="translate(666 463)"/><circle class="b" cx="2" cy="2" r="2" transform="translate(680 463)"/><circle class="b" cx="2" cy="2" r="2" transform="translate(694 463)"/><circle class="b" cx="2" cy="2" r="2" transform="translate(708 463)"/><circle class="b" cx="2" cy="2" r="2" transform="translate(722 463)"/><circle class="b" cx="2" cy="2" r="2" transform="translate(736 463)"/><circle class="b" cx="2" cy="2" r="2" transform="translate(750 463)"/><circle class="b" cx="2" cy="2" r="2" transform="translate(764 463)"/><circle class="b" cx="2" cy="2" r="2" transform="translate(778 463)"/><circle class="b" cx="2" cy="2" r="2" transform="translate(792 463)"/><circle class="b" cx="2" cy="2" r="2" transform="translate(806 463)"/><circle class="b" cx="2" cy="2" r="2" transform="translate(820 463)"/><circle class="b" cx="2" cy="2" r="2" transform="translate(834 463)"/><circle class="b" cx="2" cy="2" r="2" transform="translate(582 477)"/><circle class="b" cx="2" cy="2" r="2" transform="translate(596 477)"/><circle class="b" cx="2" cy="2" r="2" transform="translate(610 477)"/><circle class="b" cx="2" cy="2" r="2" transform="translate(624 477)"/><circle class="b" cx="2" cy="2" r="2" transform="translate(638 477)"/><circle class="b" cx="2" cy="2" r="2" transform="translate(652 477)"/><circle class="b" cx="2" cy="2" r="2" transform="translate(666 477)"/><circle class="b" cx="2" cy="2" r="2" transform="translate(680 477)"/><circle class="b" cx="2" cy="2" r="2" transform="translate(694 477)"/><circle class="b" cx="2" cy="2" r="2" transform="translate(708 477)"/><circle class="b" cx="2" cy="2" r="2" transform="translate(722 477)"/><circle class="b" cx="2" cy="2" r="2" transform="translate(736 477)"/><circle class="b" cx="2" cy="2" r="2" transform="translate(750 477)"/><circle class="b" cx="2" cy="2" r="2" transform="translate(764 477)"/><circle class="b" cx="2" cy="2" r="2" transform="translate(778 477)"/><circle class="b" cx="2" cy="2" r="2" transform="translate(792 477)"/><circle class="b" cx="2" cy="2" r="2" transform="translate(806 477)"/><circle class="b" cx="2" cy="2" r="2" transform="translate(820 477)"/><circle class="b" cx="2" cy="2" r="2" transform="translate(834 477)"/><circle class="b" cx="2" cy="2" r="2" transform="translate(582 491)"/><circle class="b" cx="2" cy="2" r="2" transform="translate(596 491)"/><circle class="b" cx="2" cy="2" r="2" transform="translate(610 491)"/><circle class="b" cx="2" cy="2" r="2" transform="translate(624 491)"/><circle class="b" cx="2" cy="2" r="2" transform="translate(638 491)"/><circle class="b" cx="2" cy="2" r="2" transform="translate(652 491)"/><circle class="b" cx="2" cy="2" r="2" transform="translate(666 491)"/><circle class="b" cx="2" cy="2" r="2" transform="translate(680 491)"/><circle class="b" cx="2" cy="2" r="2" transform="translate(694 491)"/><circle class="b" cx="2" cy="2" r="2" transform="translate(708 491)"/><circle class="b" cx="2" cy="2" r="2" transform="translate(722 491)"/><circle class="b" cx="2" cy="2" r="2" transform="translate(736 491)"/><circle class="b" cx="2" cy="2" r="2" transform="translate(750 491)"/><circle class="b" cx="2" cy="2" r="2" transform="translate(764 491)"/><circle class="b" cx="2" cy="2" r="2" transform="translate(778 491)"/><circle class="b" cx="2" cy="2" r="2" transform="translate(792 491)"/><circle class="b" cx="2" cy="2" r="2" transform="translate(806 491)"/><circle class="b" cx="2" cy="2" r="2" transform="translate(820 491)"/><circle class="b" cx="2" cy="2" r="2" transform="translate(834 491)"/><circle class="b" cx="2" cy="2" r="2" transform="translate(582 505)"/><circle class="b" cx="2" cy="2" r="2" transform="translate(596 505)"/><circle class="b" cx="2" cy="2" r="2" transform="translate(610 505)"/><circle class="b" cx="2" cy="2" r="2" transform="translate(624 505)"/><circle class="b" cx="2" cy="2" r="2" transform="translate(638 505)"/><circle class="b" cx="2" cy="2" r="2" transform="translate(652 505)"/><circle class="b" cx="2" cy="2" r="2" transform="translate(666 505)"/><circle class="b" cx="2" cy="2" r="2" transform="translate(680 505)"/><circle class="b" cx="2" cy="2" r="2" transform="translate(694 505)"/><circle class="b" cx="2" cy="2" r="2" transform="translate(708 505)"/><circle class="b" cx="2" cy="2" r="2" transform="translate(722 505)"/><circle class="b" cx="2" cy="2" r="2" transform="translate(736 505)"/><circle class="b" cx="2" cy="2" r="2" transform="translate(750 505)"/><circle class="b" cx="2" cy="2" r="2" transform="translate(764 505)"/><circle class="b" cx="2" cy="2" r="2" transform="translate(778 505)"/><circle class="b" cx="2" cy="2" r="2" transform="translate(792 505)"/><circle class="b" cx="2" cy="2" r="2" transform="translate(806 505)"/><circle class="b" cx="2" cy="2" r="2" transform="translate(820 505)"/><circle class="b" cx="2" cy="2" r="2" transform="translate(834 505)"/><circle class="b" cx="2" cy="2" r="2" transform="translate(582 519)"/><circle class="b" cx="2" cy="2" r="2" transform="translate(596 519)"/><circle class="b" cx="2" cy="2" r="2" transform="translate(610 519)"/><circle class="b" cx="2" cy="2" r="2" transform="translate(624 519)"/><circle class="b" cx="2" cy="2" r="2" transform="translate(638 519)"/><circle class="b" cx="2" cy="2" r="2" transform="translate(652 519)"/><circle class="b" cx="2" cy="2" r="2" transform="translate(666 519)"/><circle class="b" cx="2" cy="2" r="2" transform="translate(680 519)"/><circle class="b" cx="2" cy="2" r="2" transform="translate(694 519)"/><circle class="b" cx="2" cy="2" r="2" transform="translate(708 519)"/><circle class="b" cx="2" cy="2" r="2" transform="translate(722 519)"/><circle class="b" cx="2" cy="2" r="2" transform="translate(736 519)"/><circle class="b" cx="2" cy="2" r="2" transform="translate(750 519)"/><circle class="b" cx="2" cy="2" r="2" transform="translate(764 519)"/><circle class="b" cx="2" cy="2" r="2" transform="translate(778 519)"/><circle class="b" cx="2" cy="2" r="2" transform="translate(792 519)"/><circle class="b" cx="2" cy="2" r="2" transform="translate(806 519)"/><circle class="b" cx="2" cy="2" r="2" transform="translate(820 519)"/><circle class="b" cx="2" cy="2" r="2" transform="translate(834 519)"/><circle class="b" cx="2" cy="2" r="2" transform="translate(582 533)"/><circle class="b" cx="2" cy="2" r="2" transform="translate(596 533)"/><circle class="b" cx="2" cy="2" r="2" transform="translate(610 533)"/><circle class="b" cx="2" cy="2" r="2" transform="translate(624 533)"/><circle class="b" cx="2" cy="2" r="2" transform="translate(638 533)"/><circle class="b" cx="2" cy="2" r="2" transform="translate(652 533)"/><circle class="b" cx="2" cy="2" r="2" transform="translate(666 533)"/><circle class="b" cx="2" cy="2" r="2" transform="translate(680 533)"/><circle class="b" cx="2" cy="2" r="2" transform="translate(694 533)"/><circle class="b" cx="2" cy="2" r="2" transform="translate(708 533)"/><circle class="b" cx="2" cy="2" r="2" transform="translate(722 533)"/><circle class="b" cx="2" cy="2" r="2" transform="translate(736 533)"/><circle class="b" cx="2" cy="2" r="2" transform="translate(750 533)"/><circle class="b" cx="2" cy="2" r="2" transform="translate(764 533)"/><circle class="b" cx="2" cy="2" r="2" transform="translate(778 533)"/><circle class="b" cx="2" cy="2" r="2" transform="translate(792 533)"/><circle class="b" cx="2" cy="2" r="2" transform="translate(806 533)"/><circle class="b" cx="2" cy="2" r="2" transform="translate(820 533)"/><circle class="b" cx="2" cy="2" r="2" transform="translate(834 533)"/><circle class="b" cx="2" cy="2" r="2" transform="translate(582 547)"/><circle class="b" cx="2" cy="2" r="2" transform="translate(596 547)"/><circle class="b" cx="2" cy="2" r="2" transform="translate(610 547)"/><circle class="b" cx="2" cy="2" r="2" transform="translate(624 547)"/><circle class="b" cx="2" cy="2" r="2" transform="translate(638 547)"/><circle class="b" cx="2" cy="2" r="2" transform="translate(652 547)"/><circle class="b" cx="2" cy="2" r="2" transform="translate(666 547)"/><circle class="b" cx="2" cy="2" r="2" transform="translate(680 547)"/><circle class="b" cx="2" cy="2" r="2" transform="translate(694 547)"/><circle class="b" cx="2" cy="2" r="2" transform="translate(708 547)"/><circle class="b" cx="2" cy="2" r="2" transform="translate(722 547)"/><circle class="b" cx="2" cy="2" r="2" transform="translate(736 547)"/><circle class="b" cx="2" cy="2" r="2" transform="translate(750 547)"/><circle class="b" cx="2" cy="2" r="2" transform="translate(764 547)"/><circle class="b" cx="2" cy="2" r="2" transform="translate(778 547)"/><circle class="b" cx="2" cy="2" r="2" transform="translate(792 547)"/><circle class="b" cx="2" cy="2" r="2" transform="translate(806 547)"/><circle class="b" cx="2" cy="2" r="2" transform="translate(820 547)"/><circle class="b" cx="2" cy="2" r="2" transform="translate(834 547)"/><circle class="b" cx="2" cy="2" r="2" transform="translate(582 561)"/><circle class="b" cx="2" cy="2" r="2" transform="translate(596 561)"/><circle class="b" cx="2" cy="2" r="2" transform="translate(610 561)"/><circle class="b" cx="2" cy="2" r="2" transform="translate(624 561)"/><circle class="b" cx="2" cy="2" r="2" transform="translate(638 561)"/><circle class="b" cx="2" cy="2" r="2" transform="translate(652 561)"/><circle class="b" cx="2" cy="2" r="2" transform="translate(666 561)"/><circle class="b" cx="2" cy="2" r="2" transform="translate(680 561)"/><circle class="b" cx="2" cy="2" r="2" transform="translate(694 561)"/><circle class="b" cx="2" cy="2" r="2" transform="translate(708 561)"/><circle class="b" cx="2" cy="2" r="2" transform="translate(722 561)"/><circle class="b" cx="2" cy="2" r="2" transform="translate(736 561)"/><circle class="b" cx="2" cy="2" r="2" transform="translate(750 561)"/><circle class="b" cx="2" cy="2" r="2" transform="translate(764 561)"/><circle class="b" cx="2" cy="2" r="2" transform="translate(778 561)"/><circle class="b" cx="2" cy="2" r="2" transform="translate(792 561)"/><circle class="b" cx="2" cy="2" r="2" transform="translate(806 561)"/><circle class="b" cx="2" cy="2" r="2" transform="translate(820 561)"/><circle class="b" cx="2" cy="2" r="2" transform="translate(834 561)"/><circle class="b" cx="2" cy="2" r="2" transform="translate(582 575)"/><circle class="b" cx="2" cy="2" r="2" transform="translate(596 575)"/><circle class="b" cx="2" cy="2" r="2" transform="translate(610 575)"/><circle class="b" cx="2" cy="2" r="2" transform="translate(624 575)"/><circle class="b" cx="2" cy="2" r="2" transform="translate(638 575)"/><circle class="b" cx="2" cy="2" r="2" transform="translate(652 575)"/><circle class="b" cx="2" cy="2" r="2" transform="translate(666 575)"/><circle class="b" cx="2" cy="2" r="2" transform="translate(680 575)"/><circle class="b" cx="2" cy="2" r="2" transform="translate(694 575)"/><circle class="b" cx="2" cy="2" r="2" transform="translate(708 575)"/><circle class="b" cx="2" cy="2" r="2" transform="translate(722 575)"/><circle class="b" cx="2" cy="2" r="2" transform="translate(736 575)"/><circle class="b" cx="2" cy="2" r="2" transform="translate(750 575)"/><circle class="b" cx="2" cy="2" r="2" transform="translate(764 575)"/><circle class="b" cx="2" cy="2" r="2" transform="translate(778 575)"/><circle class="b" cx="2" cy="2" r="2" transform="translate(792 575)"/><circle class="b" cx="2" cy="2" r="2" transform="translate(806 575)"/><circle class="b" cx="2" cy="2" r="2" transform="translate(820 575)"/><circle class="b" cx="2" cy="2" r="2" transform="translate(834 575)"/><circle class="b" cx="2" cy="2" r="2" transform="translate(582 589)"/><circle class="b" cx="2" cy="2" r="2" transform="translate(596 589)"/><circle class="b" cx="2" cy="2" r="2" transform="translate(610 589)"/><circle class="b" cx="2" cy="2" r="2" transform="translate(624 589)"/><circle class="b" cx="2" cy="2" r="2" transform="translate(638 589)"/><circle class="b" cx="2" cy="2" r="2" transform="translate(652 589)"/><circle class="b" cx="2" cy="2" r="2" transform="translate(666 589)"/><circle class="b" cx="2" cy="2" r="2" transform="translate(680 589)"/><circle class="b" cx="2" cy="2" r="2" transform="translate(694 589)"/><circle class="b" cx="2" cy="2" r="2" transform="translate(708 589)"/><circle class="b" cx="2" cy="2" r="2" transform="translate(722 589)"/><circle class="b" cx="2" cy="2" r="2" transform="translate(736 589)"/><circle class="b" cx="2" cy="2" r="2" transform="translate(750 589)"/><circle class="b" cx="2" cy="2" r="2" transform="translate(764 589)"/><circle class="b" cx="2" cy="2" r="2" transform="translate(778 589)"/><circle class="b" cx="2" cy="2" r="2" transform="translate(792 589)"/><circle class="b" cx="2" cy="2" r="2" transform="translate(806 589)"/><circle class="b" cx="2" cy="2" r="2" transform="translate(820 589)"/><circle class="b" cx="2" cy="2" r="2" transform="translate(834 589)"/><circle class="b" cx="2" cy="2" r="2" transform="translate(582 603)"/><circle class="b" cx="2" cy="2" r="2" transform="translate(596 603)"/><circle class="b" cx="2" cy="2" r="2" transform="translate(610 603)"/><circle class="b" cx="2" cy="2" r="2" transform="translate(624 603)"/><circle class="b" cx="2" cy="2" r="2" transform="translate(638 603)"/><circle class="b" cx="2" cy="2" r="2" transform="translate(652 603)"/><circle class="b" cx="2" cy="2" r="2" transform="translate(666 603)"/><circle class="b" cx="2" cy="2" r="2" transform="translate(680 603)"/><circle class="b" cx="2" cy="2" r="2" transform="translate(694 603)"/><circle class="b" cx="2" cy="2" r="2" transform="translate(708 603)"/><circle class="b" cx="2" cy="2" r="2" transform="translate(722 603)"/><circle class="b" cx="2" cy="2" r="2" transform="translate(736 603)"/><circle class="b" cx="2" cy="2" r="2" transform="translate(750 603)"/><circle class="b" cx="2" cy="2" r="2" transform="translate(764 603)"/><circle class="b" cx="2" cy="2" r="2" transform="translate(778 603)"/><circle class="b" cx="2" cy="2" r="2" transform="translate(792 603)"/><circle class="b" cx="2" cy="2" r="2" transform="translate(806 603)"/><circle class="b" cx="2" cy="2" r="2" transform="translate(820 603)"/><circle class="b" cx="2" cy="2" r="2" transform="translate(834 603)"/><circle class="b" cx="2" cy="2" r="2" transform="translate(582 617)"/><circle class="b" cx="2" cy="2" r="2" transform="translate(596 617)"/><circle class="b" cx="2" cy="2" r="2" transform="translate(610 617)"/><circle class="b" cx="2" cy="2" r="2" transform="translate(624 617)"/><circle class="b" cx="2" cy="2" r="2" transform="translate(638 617)"/><circle class="b" cx="2" cy="2" r="2" transform="translate(652 617)"/><circle class="b" cx="2" cy="2" r="2" transform="translate(666 617)"/><circle class="b" cx="2" cy="2" r="2" transform="translate(680 617)"/><circle class="b" cx="2" cy="2" r="2" transform="translate(694 617)"/><circle class="b" cx="2" cy="2" r="2" transform="translate(708 617)"/><circle class="b" cx="2" cy="2" r="2" transform="translate(722 617)"/><circle class="b" cx="2" cy="2" r="2" transform="translate(736 617)"/><circle class="b" cx="2" cy="2" r="2" transform="translate(750 617)"/><circle class="b" cx="2" cy="2" r="2" transform="translate(764 617)"/><circle class="b" cx="2" cy="2" r="2" transform="translate(778 617)"/><circle class="b" cx="2" cy="2" r="2" transform="translate(792 617)"/><circle class="b" cx="2" cy="2" r="2" transform="translate(806 617)"/><circle class="b" cx="2" cy="2" r="2" transform="translate(820 617)"/><circle class="b" cx="2" cy="2" r="2" transform="translate(834 617)"/><circle class="b" cx="2" cy="2" r="2" transform="translate(582 631)"/><circle class="b" cx="2" cy="2" r="2" transform="translate(596 631)"/><circle class="b" cx="2" cy="2" r="2" transform="translate(610 631)"/><circle class="b" cx="2" cy="2" r="2" transform="translate(624 631)"/><circle class="b" cx="2" cy="2" r="2" transform="translate(638 631)"/><circle class="b" cx="2" cy="2" r="2" transform="translate(652 631)"/><circle class="b" cx="2" cy="2" r="2" transform="translate(666 631)"/><circle class="b" cx="2" cy="2" r="2" transform="translate(680 631)"/><circle class="b" cx="2" cy="2" r="2" transform="translate(694 631)"/><circle class="b" cx="2" cy="2" r="2" transform="translate(708 631)"/><circle class="b" cx="2" cy="2" r="2" transform="translate(722 631)"/><circle class="b" cx="2" cy="2" r="2" transform="translate(736 631)"/><circle class="b" cx="2" cy="2" r="2" transform="translate(750 631)"/><circle class="b" cx="2" cy="2" r="2" transform="translate(764 631)"/><circle class="b" cx="2" cy="2" r="2" transform="translate(778 631)"/><circle class="b" cx="2" cy="2" r="2" transform="translate(792 631)"/><circle class="b" cx="2" cy="2" r="2" transform="translate(806 631)"/><circle class="b" cx="2" cy="2" r="2" transform="translate(820 631)"/><circle class="b" cx="2" cy="2" r="2" transform="translate(834 631)"/><circle class="b" cx="2" cy="2" r="2" transform="translate(582 645)"/><circle class="b" cx="2" cy="2" r="2" transform="translate(596 645)"/><circle class="b" cx="2" cy="2" r="2" transform="translate(610 645)"/><circle class="b" cx="2" cy="2" r="2" transform="translate(624 645)"/><circle class="b" cx="2" cy="2" r="2" transform="translate(638 645)"/><circle class="b" cx="2" cy="2" r="2" transform="translate(652 645)"/><circle class="b" cx="2" cy="2" r="2" transform="translate(666 645)"/><circle class="b" cx="2" cy="2" r="2" transform="translate(680 645)"/><circle class="b" cx="2" cy="2" r="2" transform="translate(694 645)"/><circle class="b" cx="2" cy="2" r="2" transform="translate(708 645)"/><circle class="b" cx="2" cy="2" r="2" transform="translate(722 645)"/><circle class="b" cx="2" cy="2" r="2" transform="translate(736 645)"/><circle class="b" cx="2" cy="2" r="2" transform="translate(750 645)"/><circle class="b" cx="2" cy="2" r="2" transform="translate(764 645)"/><circle class="b" cx="2" cy="2" r="2" transform="translate(778 645)"/><circle class="b" cx="2" cy="2" r="2" transform="translate(792 645)"/><circle class="b" cx="2" cy="2" r="2" transform="translate(806 645)"/><circle class="b" cx="2" cy="2" r="2" transform="translate(820 645)"/><circle class="b" cx="2" cy="2" r="2" transform="translate(834 645)"/></g><path class="c" d="M272.689,670.778H58.51A58.287,58.287,0,0,1,25.8,660.8a58.617,58.617,0,0,1-21.2-25.71A58.006,58.006,0,0,1,0,612.342V58.437A58.116,58.116,0,0,1,9.993,25.764,58.671,58.671,0,0,1,35.735,4.592,58.207,58.207,0,0,1,58.51,0H272.689A58.283,58.283,0,0,1,305.4,9.98a58.615,58.615,0,0,1,21.2,25.71,58.007,58.007,0,0,1,4.6,22.746V159.4h3.69v71.869H331.2V612.342a58.116,58.116,0,0,1-9.993,32.672,58.67,58.67,0,0,1-25.743,21.172A58.2,58.2,0,0,1,272.689,670.778ZM59.842,15.2a43.618,43.618,0,0,0-43.7,43.641V611.936a43.648,43.648,0,0,0,43.7,43.641H275.05a43.618,43.618,0,0,0,43.7-43.641V58.844a43.648,43.648,0,0,0-43.7-43.641H247.1a20.747,20.747,0,0,1-19.223,28.563h-122.7A20.746,20.746,0,0,1,85.949,15.2Z" transform="translate(553 118)"/></g></svg>