<svg xmlns="http://www.w3.org/2000/svg" width="236.792" height="69.868" viewBox="0 0 236.792 69.868"><defs><style>.a{fill:#fff;}</style></defs><g transform="translate(-735 -641.022)"><g transform="translate(735 641.022)"><path class="a" d="M2.443.733l13.68,8.55L30.781,0l14.9,9.283L60.34,0l14.9,9.283L90.144,0,104.8,9.283l13.68-8.55,2.443,4.153L104.8,14.9,90.144,5.619,75.242,14.9,60.34,5.619,45.683,14.9l-14.9-9.283L16.123,14.9,0,4.886Z"/><path class="a" d="M2.443,75.733l13.68,8.55L30.781,75l14.9,9.283L60.34,75l14.9,9.283L90.144,75,104.8,84.283l13.68-8.55,2.443,4.153L104.8,89.9,90.144,80.619,75.242,89.9l-14.9-9.283L45.683,89.9l-14.9-9.283L16.123,89.9,0,79.886Z" transform="translate(0 -56.678)"/><path class="a" d="M2.443,150.733l13.68,8.55L30.781,150l14.9,9.283L60.34,150l14.9,9.283L90.144,150l14.658,9.283,13.68-8.55,2.443,4.153L104.8,164.9l-14.658-9.283-14.9,9.283-14.9-9.283L45.683,164.9l-14.9-9.283L16.123,164.9,0,154.886Z" transform="translate(0 -113.356)"/><path class="a" d="M2.443,225.733l13.68,8.55L30.781,225l14.9,9.283L60.34,225l14.9,9.283L90.144,225l14.658,9.283,13.68-8.55,2.443,4.153L104.8,239.9l-14.658-9.283-14.9,9.283-14.9-9.283L45.683,239.9l-14.9-9.283L16.123,239.9,0,229.886Z" transform="translate(0 -170.034)"/></g><g transform="translate(850.867 641.022)"><path class="a" d="M2.443.733l13.68,8.55L30.781,0l14.9,9.283L60.34,0l14.9,9.283L90.144,0,104.8,9.283l13.68-8.55,2.443,4.153L104.8,14.9,90.144,5.619,75.242,14.9,60.34,5.619,45.683,14.9l-14.9-9.283L16.123,14.9,0,4.886Z"/><path class="a" d="M2.443,75.733l13.68,8.55L30.781,75l14.9,9.283L60.34,75l14.9,9.283L90.144,75,104.8,84.283l13.68-8.55,2.443,4.153L104.8,89.9,90.144,80.619,75.242,89.9l-14.9-9.283L45.683,89.9l-14.9-9.283L16.123,89.9,0,79.886Z" transform="translate(0 -56.678)"/><path class="a" d="M2.443,150.733l13.68,8.55L30.781,150l14.9,9.283L60.34,150l14.9,9.283L90.144,150l14.658,9.283,13.68-8.55,2.443,4.153L104.8,164.9l-14.658-9.283-14.9,9.283-14.9-9.283L45.683,164.9l-14.9-9.283L16.123,164.9,0,154.886Z" transform="translate(0 -113.356)"/><path class="a" d="M2.443,225.733l13.68,8.55L30.781,225l14.9,9.283L60.34,225l14.9,9.283L90.144,225l14.658,9.283,13.68-8.55,2.443,4.153L104.8,239.9l-14.658-9.283-14.9,9.283-14.9-9.283L45.683,239.9l-14.9-9.283L16.123,239.9,0,229.886Z" transform="translate(0 -170.034)"/></g></g></svg>