<svg xmlns="http://www.w3.org/2000/svg" xmlns:xlink="http://www.w3.org/1999/xlink" width="94.108" height="94.108" viewBox="0 0 94.108 94.108"><defs><style>.a{fill:url(#a);}</style><linearGradient id="a" x1="1" y1="0.419" x2="0" y2="0.5" gradientUnits="objectBoundingBox"><stop offset="0" stop-color="#2cecef"/><stop offset="0.349" stop-color="#644bee"/><stop offset="0.469" stop-color="#6c38e8"/><stop offset="0.592" stop-color="#a74798"/><stop offset="1" stop-color="#fd9626"/></linearGradient></defs><path class="a" d="M103.961,24.021a1.936,1.936,0,0,0-1.807-1.223H91.313V11.956a1.936,1.936,0,0,0-1.223-1.807,1.981,1.981,0,0,0-2.127.414l-8.922,8.922a2.013,2.013,0,0,0-.565,1.393v11.99l-8.621,8.621a36.083,36.083,0,1,0,2.767,2.767l8.62-8.6h11.99a1.97,1.97,0,0,0,1.393-.6l8.922-8.922A1.943,1.943,0,0,0,103.961,24.021ZM74.937,68.2a29.113,29.113,0,1,1-9.957-21.834l-2.767,2.767A25.167,25.167,0,1,0,64.981,51.9l2.767-2.767A28.877,28.877,0,0,1,74.937,68.2ZM45.914,71.641A3.45,3.45,0,0,0,49.377,68.2a3.494,3.494,0,0,0-.075-.621l3.012-2.993A7.4,7.4,0,1,1,49.546,61.8l-3.012,3.012a3.122,3.122,0,0,0-.621-.075,3.454,3.454,0,0,0,0,6.908Zm0-17.731A14.277,14.277,0,1,0,60.2,68.2a14.113,14.113,0,0,0-2.917-8.6l2.8-2.8a18.221,18.221,0,1,1-2.767-2.767l-2.8,2.8A14.115,14.115,0,0,0,45.914,53.91Z" transform="translate(-10.001 -10.001)"/></svg>